# xmcd
#
# Track frame offsets: 
#        150
#        3489
#        15793
#        37347
#        52447
#        74383
#        80314
#        100537
#        111125
#        135615
#        147582
#        164872
#        187135
#        200162
#        220777
#        238514
#        257482
#        277512
#        295182
#        309543
#        330429
#
# Disc length: 4439 seconds
#
# Revision: 0
# Processed by: cddbd v1.5.2PL0 Copyright (c) Steve Scherf et al.
# Submitted via: ExactAudioCopyFreeDBPlugin 1.0
#
DISCID=37115515
DTITLE=Chidvillas - Magische Kunst
DYEAR=2018
DGENRE=Rap
TTITLE0=Intro
TTITLE1=Chidvillas
TTITLE2=Caligula
TTITLE3=Die edlen 4 Wahrheiten
TTITLE4=Leben
TTITLE5=Magisches Theater Interlude
TTITLE6=Magisches Theater
TTITLE7=Dualität
TTITLE8=Komme was wolle
TTITLE9=Öffne die Flügel
TTITLE10=Nie wieder offline
TTITLE11=1984
TTITLE12=Inhaftierte Freiheit
TTITLE13=Gather Ur Arms
TTITLE14=Ratten
TTITLE15=Quelle des Zorns
TTITLE16=Gegenfrieden
TTITLE17=Endlosarm
TTITLE18=Geplanter Verschleiss
TTITLE19=Heute jetzt und hier
TTITLE20=Outro
EXTD=
EXTT0=
EXTT1=
EXTT2=
EXTT3=
EXTT4=
EXTT5=
EXTT6=
EXTT7=
EXTT8=
EXTT9=
EXTT10=
EXTT11=
EXTT12=
EXTT13=
EXTT14=
EXTT15=
EXTT16=
EXTT17=
EXTT18=
EXTT19=
EXTT20=
PLAYORDER=
